<svg version="1.2" baseProfile="tiny-ps" xmlns="http://www.w3.org/2000/svg" viewBox="0 0 2099 2099" width="2099" height="2099">
	<title>E-commerce 1-ai</title>
	<style>
		tspan { white-space:pre }
		.s0 { fill: #85f2d2 } 
		.s1 { fill: #45e5b6 } 
		.s2 { fill: #48b5ae } 
		.s3 { fill: #3a9c99 } 
		.s4 { fill: #00ffc3 } 
		.s5 { fill: #109475 } 
		.s6 { fill: #006c53 } 
		.s7 { fill: #ffa080 } 
		.s8 { fill: #dd8568 } 
		.s9 { fill: #ffffff } 
		.s10 { fill: #140045 } 
		.s11 { fill: #43385f } 
		.s12 { fill: #ea7a9b } 
		.s13 { fill: #9e4ebf } 
		.s14 { fill: #d9d5d5 } 
		.s15 { fill: #faaa6d } 
		.s16 { fill: #e18462 } 
		.s17 { fill: #000000 } 
		.s18 { fill: #242b76 } 
		.s19 { fill: #5158a7 } 
		.s20 { fill: #3a42a6 } 
		.s21 { fill: #ea9f66 } 
		.s22 { fill: #626ce1 } 
		.s23 { fill: #8089ef } 
		.s24 { fill: #ffd255 } 
		.s25 { fill: #41467f } 
		.s26 { fill: #fffefe } 
		.s27 { fill: #ff8282 } 
		.s28 { fill: #e95e5e } 
		.s29 { fill: #f5f4ff } 
		.s30 { fill: #d8d6ff } 
	</style>
	<g id="Layer 1">
		<g id="&lt;Group&gt;">
			<path id="&lt;Path&gt;" class="s0" d="m3027 297v1802l-2241.34 0c-46.9-34.04-86.6-70.9-119.05-109.76c-14.39-17.2-27.33-34.77-38.83-52.67c-4.33-6.72-8.47-13.48-12.35-20.27c-61.97-107.42-73.64-224.84-33.4-336.58c30.5-84.71 90.85-166.17 181.75-237.52c346.24-271.79 824.59-647.29 1331.52-1045.21l931.7 0z" />
			<path id="&lt;Path&gt;" class="s1" d="m2099 872.24v1226.76l-1398.73 0c-29.27-27.63-54.04-57.54-74.3-89.09c-8.98-13.96-17.05-28.22-24.23-42.75c-2.7-5.45-5.28-10.94-7.71-16.45c-38.67-87.19-45.95-182.5-20.84-273.19c590.02 136.35 836.64-93.89 1197.8-530.8c104.15-126 217.28-213.71 328-274.48z" />
			<path id="&lt;Path&gt;" class="s2" d="m1794 1930.3v168.7l-1098.68 0c-22.99-25.71-42.45-53.55-58.36-82.9c-7.06-12.99-13.4-26.26-19.03-39.79c27.73-6.25 56.81-12.52 87.06-18.69c306.4-62.46 732.76-114.26 1089.01-27.32z" />
			<path id="&lt;Path&gt;" class="s3" d="m1698.85 1988.02c0 19.32-297.68 34.99-664.89 34.99c-148.81 0-286.21-2.57-397-6.92c-7.06-12.99-13.4-26.26-19.03-39.79c-2.12-5.07-4.15-10.18-6.05-15.31c29.08-1.26 60.21-2.4 93.12-3.38c97-2.92 209.29-4.58 328.97-4.58c367.21 0 664.89 15.67 664.89 34.98z" />
			<path id="&lt;Path&gt;" class="s4" d="m1645.99 1928.12c-0.01-0.52-0.01-1.04-0.01-1.56c0-41.81 11.76-75.76 26.26-75.76c14.49 0 26.26 33.95 26.26 75.76c0 0.52 0 1.04-0.01 1.56h-52.5z" />
			<path id="&lt;Path&gt;" class="s5" d="m1681.87 1928.12c0-0.33 0-0.66 0-0.99c0-26.49 7.45-48 16.64-48c9.18 0 16.64 21.51 16.64 48c0 0.33 0 0.66 0 0.99h-33.26z" />
			<path id="&lt;Path&gt;" class="s6" d="m823.81 2099h-78.58c1.37-59.12 18.45-105.9 39.29-105.9c12.96 0 24.46 18.11 31.65 46.03c4.36 16.96 7.12 37.54 7.64 59.87z" />
			<path id="&lt;Path&gt;" class="s5" d="m848.68 2099h-49.56c1.16-28.14 7.97-51.33 17.05-59.87c2.43-2.29 5.04-3.54 7.74-3.54c12.77 0 23.3 27.71 24.78 63.41z" />
		</g>
		<g id=" 8 2 ">
			<path id="&lt;Path&gt;" class="s7" d="m1651.06 1229.9c8.98-15.2 16.13-22.35 21.44-21.44c7.97 1.36 5.03 4.42 26.8 1.07c14.52-2.23 24.16 3.13 28.95 16.08c-26.77 9.06-42.13 16.2-46.1 21.44c-3.97 5.24-14.33-0.48-31.09-17.15z" />
			<path id="&lt;Path&gt;" class="s7" d="m1390.55 1176.3c1.76-8.71-0.02-18-5.36-27.87c-8.01-14.82-10.05-32.57 6.43-34.31c10.99-1.16 17.78 5.99 20.37 21.44c4.02-2.04 6.52-0.97 7.5 3.22c0.99 4.19-0.8 13.12-5.36 26.8l-23.59 10.72z" />
			<g id="&lt;Group&gt;">
				<path id="&lt;Path&gt;" class="s7" d="m1548.57 1275.83c-1.58 12.83-6.6 32.58-20.02 48.62c-6.8 8.16-15.79 15.36-27.59 20.2c-19.55 8.01-29.87 6.87-35.04 2.5c-0.01-0.01-0.01-0.01-0.02-0.02c-1.36-1.16-2.36-2.55-3.08-4.05c-2.92-6.07-1.17-14.03 0.24-16.63c3.05-5.66 13.3-17.22 19.68-29.19c4.98-9.34-5.68-16.36-6.96-26.11c-0.37-2.75 0.01-5.72 1.7-9.02c5.11-10.01 16.73-18.73 34.88-26.18c25.74 13.69 37.81 26.99 36.21 39.89z" />
			</g>
			<g id="&lt;Group&gt;">
				<path id="&lt;Path&gt;" class="s8" d="m1528.55 1324.46c-6.8 8.16-15.79 15.36-27.59 20.2c-19.55 8.01-29.87 6.87-35.04 2.5c-0.01-0.01-0.01-0.01-0.02-0.02c-0.99-1.38-2.01-2.74-3.08-4.05c-2.92-6.07-1.17-14.03 0.24-16.63c3.05-5.66 13.3-17.22 19.68-29.19c4.98-9.34-5.68-16.36-6.96-26.11c0.42 0.58 0.82 1.25 1.18 2.01c7.26 15.29 23.74 16.34 49.47 3.14c9.15 7.05 9.86 23.11 2.12 48.15z" />
			</g>
			<path id="&lt;Path&gt;" class="s9" d="m1530.99 1895.65c10.99 61.81 16.35 93.98 16.08 96.49c-0.4 3.76-4.38 5.83-37.52 5.36c-22.09-0.31-35.31-0.67-39.67-1.07c-4.13-5.33-3.41-9.62 2.14-12.86c8.34-4.87 29.58-13.01 31.09-25.73c1.01-8.48-3.64-26.7-13.94-54.67l41.81-7.5z" />
			<path id="&lt;Path&gt;" class="s9" d="m1234.03 1857.06l-16.08 50.39l-105.06 34.31c-7.7-3.57-7.35-9.64 1.07-18.22c12.63-12.88 42.64-28.83 45.03-31.09c1.59-1.51 12.31-17.23 32.16-47.17l42.88 11.79z" />
			<g id="&lt;Group&gt;">
				<path id="&lt;Path&gt;" class="s10" d="m1854.75 1414.29c-22.41 61.87-73.86 103.9-152.87 94.59c-10.71-1.25-21.95-3.46-33.67-6.68c-65.45-18.02-112.26-51.25-140.43-99.7l-23.59-63.26c4.37-13.78 10.44-26.29 18.22-37.52c-12.57-10.77-10.57-22.26 0-39.66c-7.09-7.19-10.67-15.77-10.71-25.74c5.78-2.82 12.71-3.39 20.81-1.71c1.21 0.24 2.45 0.56 3.73 0.95c0.75 0.22 1.5 0.48 2.26 0.76c0.12-0.06 0.24-0.13 0.36-0.19c32.26-17.41 53.21-15.96 67.31-5.91c5.04 3.6 9.22 8.29 12.73 13.61c10.06 15.27 24.66 9.56 43.03 4.74c6-1.58 12.39-3.05 19.16-3.67c27.47-2.5 39.68 28.26 39.66 49.32c0 7.85 3.58 16.77 10.64 23.73c11.67 11.53 32.84 17.7 62.96 4.77c0.48-0.21 0.97-0.41 1.45-0.63c49.26-21.93 84.4 21.94 58.96 92.19z" />
				<g id="&lt;Group&gt;">
					<path id="&lt;Path&gt;" class="s11" d="m1532.51 1234.62c1.21 0.24 2.45 0.56 3.73 0.95c-1.33-0.3-2.57-0.63-3.73-0.95z" />
					<path id="&lt;Path&gt;" class="s11" d="m1606.17 1230.22c-7.28-0.13-14.21 0.77-20.5 2.9c-18.68 6.3-35.3 5.32-46.81 3.02c32.26-17.41 53.21-15.96 67.31-5.91z" />
					<path id="&lt;Path&gt;" class="s11" d="m1693.94 1282.43c-6.3-12.99-17.99-24.78-32.02-33.86c6-1.58 12.39-3.05 19.16-3.67c27.47-2.5 39.68 28.26 39.66 49.32c0 7.85 3.58 16.77 10.64 23.73c-20.87-5.18-27.91-15.84-37.44-35.53z" />
					<path id="&lt;Path&gt;" class="s11" d="m1854.75 1414.29c-22.41 61.87-73.86 103.9-152.87 94.59c11.99-7.01 7.63-19.39 11.35-33.48c5-18.86 47.66-23.26 79.33-54.68c29.89-29.64 54.73-91.14 1.77-98c0.48-0.21 0.97-0.41 1.45-0.63c49.26-21.93 84.4 21.94 58.96 92.19z" />
				</g>
			</g>
			<g id="&lt;Group&gt;">
				<path id="&lt;Path&gt;" class="s12" d="m1534.21 1907.45c-19.78 15.01-34.07 17.86-42.88 8.57c-29.05-68.89-44.71-117.31-53.5-151.1c0 0 0 0 0-0.01c-0.75-2.87-1.45-5.65-2.1-8.31c-0.31-1.3-0.63-2.59-0.93-3.85c-2.57-10.91-4.36-19.99-5.66-27.55c-5.3-30.75-12.7-105.58-12.86-107.19c0-0.01 0-0.02 0-0.02l-182.25 246.57c-26.92 11.2-43.36 7.63-49.31-10.71c0.58-1.12 1.16-2.24 1.73-3.37c56.6-110.16 114.63-224.82 174.09-343.99l110.53 30.02c0 0 0 0 0 0.01l63.14 17.14c-5.48 86-9.05 145.32-10.73 177.97c-1.67 32.64 1.91 91.25 10.73 175.82z" />
				<g id="&lt;Group&gt;">
					<g id="&lt;Group&gt;">
						<path id="&lt;Path&gt;" class="s13" d="m1435.69 1756.36c0.01 0.07 0.02 0.16 0.04 0.23c-0.31-1.3-0.63-2.59-0.93-3.85c0.35 0.81 0.65 2 0.89 3.62z" />
						<path id="&lt;Path&gt;" class="s13" d="m1534.21 1907.45c-19.78 15.01-34.07 17.86-42.88 8.57c-29.05-68.89-44.71-117.31-53.5-151.1c11.31 30.42 52.58 8.43 47.21-51.39c-5.78-64.34-13.88-175.65-13.97-177.01l63.14 17.14c-5.48 86-9.05 145.32-10.73 177.97c-1.67 32.64 1.91 91.25 10.73 175.82z" />
					</g>
					<g id="&lt;Group&gt;">
						<path id="&lt;Path&gt;" class="s13" d="m1416.28 1618.01c0-0.01 0-0.02 0-0.02l-182.25 246.57c-26.92 11.2-43.36 7.63-49.31-10.71c0.58-1.12 1.16-2.24 1.73-3.37c7.63 7.77 30.67 19.5 75.8-47.86c56.94-85.01 122.74-190.26 133-216.5c6.83-17.49 6.83-33.86 0-49.12l11.81 6.6l9.24 74.4l-0.01 0.02z" />
					</g>
				</g>
			</g>
			<g id="&lt;Group&gt;">
				<g id="shirt 2 ">
					<path id="&lt;Path&gt;" class="s9" d="m1543.85 1419.71c-0.13 1.46-2.43 28.4 6.44 52.47c3.63 9.87 6.25 21.57 7.46 33.12c0 0.01 0 0.01 0 0.01c1.83 17.39 0.48 34.39-5.32 44.06c-9.64 16.1-42.43 24.96-88.98 6.43c-13.47-5.37-23.71-7.76-32.2-8.63c-20.87-2.12-31.17 4.98-52.48 0.05c-30.01-6.95-29.04-32.66-26.8-47.18c2.24-14.51 23.07-27.3 48.24-53.59c16.79-17.54 24.65-37.19 23.59-58.96c-0.01-0.02-0.04-0.05-0.05-0.07c-14.92-21.8-25.7-42.27-33.29-61.52c0-0.01-0.01-0.04-0.01-0.05c-25.89-65.83-14.27-117.53-2.03-160.28c6.19-7.27 15.84-7.99 28.95-2.15l1.07 67.54c9.93 24.78 20.64 50.16 32.15 76.12c3.92 8.83 8.31 15.21 12.86 19.76c-6.02 26.18 7.91 28.53 41.82 7.03l0.13-0.04c7.42-2.21 14.17-2.56 20.23-1.04c40.07-33.9 80.45-68.21 121.14-102.92c10.52-4.08 19.15-3.34 25.83-0.81c7.54 2.85 13.22 7.41 17.05 13.68c-6.96 17.6-79.52 92.07-99.7 117.92c-13.44 17.23-28.81 36.88-46.1 58.96c0 0.02 0 0.04 0 0.06z" />
				</g>
				<g id="&lt;Group&gt;">
					<g id="&lt;Group&gt;">
						<path id="&lt;Path&gt;" class="s14" d="m1552.43 1549.38c-9.64 16.1-42.43 24.96-88.98 6.43c-13.47-5.37-23.71-7.76-32.2-8.63c11.51-12.21 18.89-29.07 28.99-47.13c17.78-31.78 33.02-32.73 52.53 5.37c14.2 27.73 33.17 17.05 44.98-0.11c1.83 17.39 0.48 34.39-5.32 44.06z" />
					</g>
					<g id="&lt;Group&gt;">
						<path id="&lt;Path&gt;" class="s14" d="m1689.65 1242.77c-6.96 17.6-79.52 92.07-99.7 117.92c-13.44 17.23-28.81 36.88-46.1 58.96c0 0.02 0 0.04 0 0.06c-9.95 7.69-19.74 15.06-24.65 18.17c-12.2 7.76-32.52-11.12-8.58-34.3c23.94-23.19 36.98-41.65 61.11-68.62c18.69-20.91 76.02-80.25 100.87-105.87c7.54 2.85 13.22 7.41 17.05 13.68z" />
					</g>
					<g id="&lt;Group&gt;">
						<path id="&lt;Path&gt;" class="s14" d="m1435.21 1347.96c-10.27 16.9-11.41 38.15-11.47 39.47c-14.92-21.8-25.7-42.27-33.29-61.52c0-0.01-0.01-0.04-0.01-0.05c-0.58-3.25-7.98-46.02 7.53-30.67c10.74 10.63 23.15 28.23 37.25 52.77z" />
					</g>
				</g>
			</g>
		</g>
		<g id="&lt;Group&gt;">
			<g id="&lt;Group&gt;">
				<path id="&lt;Path&gt;" class="s15" d="m936.63 1374.84c-20.39 33.42-34.75 41.62-43.09 24.6c-12.5-25.53-20.13-15.88-35.64-10.3c-1.34 0.47-2.65 0.82-3.95 1.04c-13.77 2.26-25.04-10.8-26.79-45.34c-1.51-29.9 11.29-53.03 16.71-61.39c0.95-1.46 1.73-2.59 2.34-3.38c5.27-12.07 46.86-24.79 66.42-8.07c19.56 16.72 19.05 33.45 12.32 59.02c-0.86 3.27-1.3 6.43-1.42 9.43c-0.13 2.97 0.05 5.78 0.46 8.45c1.6 10.52 5.81 19.17 12.63 25.94z" />
				<g id="&lt;Group&gt;">
					<path id="&lt;Path&gt;" class="s16" d="m936.63 1374.84c-20.39 33.42-34.75 41.62-43.09 24.6c-12.5-25.53-20.13-15.88-35.64-10.3c-1.34 0.47-2.65 0.82-3.95 1.04c4.08-1.64 7.82-4.99 10.47-11.03c10.42-23.62 14.06-29.71 27.91-34.1c7.84-2.49 20.25-4.62 31.2-4.6c-0.13 2.97 0.05 5.78 0.46 8.45c1.6 10.52 5.81 19.17 12.63 25.94z" />
					<path id="&lt;Path&gt;" class="s17" d="m924.96 1331.01c-1.7 6.49-1.8 12.51-0.97 17.88l-0.01 0.01c-14.84 11.51-23.27 12.6-25.06 9.46c-1.19-2.09-3.4-6.57-6.64-13.43c5.36-1.99 8.59-5.19 9.69-9.62c1.65-6.64-5.5-22.41-16.12-14.82c-10.62 7.58-10.74 0.01-11.59-15.5c-0.86-15.53-8.24-13.61-18.39-13.6c-7.72 0.29-10.83-3.73-11.99-7.96c0.95-1.46 1.73-2.59 2.34-3.38c5.27-12.07 46.86-24.79 66.42-8.07c19.56 16.72 19.05 33.45 12.32 59.02z" />
				</g>
			</g>
			<g id="&lt;Group&gt;">
				<path id="&lt;Path&gt;" class="s18" d="m1431.44 2000.59c-6.38 12.16-21.89 13.77-30.62 13.77h-24.85c-5.57-3.39 1.56-14.29 12.77-16.99c11.21-2.69 13.19-19.05 12.09-35.32c-0.42-6.31-1.12-11.05-4.65-14.84c-5.55-5.97-18.12-9.56-47.71-13.12c-41.08-4.95-105.84-16.45-148.55-49.66c-7.55-5.88-14.42-12.43-20.34-19.74c-30.24-37.35-67.83-132.91-83.69-175.34c-3.2-8.57-5.74-15.52-7.61-20.84c0.18-2.46 0.49-5.73 0.93-9.81c1.98-18.64 7.44-59.84 19.24-88.25c11.09-26.66 27.75-42.04 52.35-16.84c0 0 0 0 0.01 0.01c54.49 55.84 66.58 221.5 103.2 258.02c3.29 3.28 6.78 5.53 10.52 6.55c45.32 12.39 70.15 41.71 101.43 53.25c19.51 7.19 35.12 14.03 47.68 22.02v0.01c4.43 2.81 8.48 5.78 12.19 8.94c2.63 2.26 5.09 4.61 7.38 7.09c11.46 25.42-5.38 78.9-11.78 91.07z" />
				<path id="&lt;Path&gt;" class="s19" d="m1199.91 1884.43c-7.55-5.88-14.42-12.43-20.34-19.74c-30.24-37.35-67.83-132.91-83.69-175.34c-6.49 3.14-13.12 6.24-19.79 9.29c-3.93-22.42 2.81-34.15 13.1-39.94c12.32-6.96 28.45-7.55 48.39-1.79c0.59 2.22 1.43 5.21 2.52 8.98c5.72 19.57 20.66 66.99 40.18 100.17c25.14 42.76 56.53 113.21 19.62 118.36z" />
				<path id="&lt;Path&gt;" class="s19" d="m1435.83 1902.42c-4.78 3.49-10.01 5.63-14.45 5.96c-1.58 0.12-3.05 0.01-4.38-0.35c-25.75-7.01-81.91-20.09-124.31-44.85c-28.66-16.73-30.5-38.91-28.68-51.53c3.29 3.28 6.78 5.53 10.52 6.55c45.32 12.39 70.15 41.71 101.43 53.25c19.51 7.19 35.12 14.03 47.68 22.02v0.01c4.43 2.81 8.48 5.78 12.19 8.94z" />
				<path id="&lt;Path&gt;" class="s18" d="m1140.12 1665.9c-1.38 0.89-2.8 1.76-4.28 2.62c-12.04 6.95-25.68 13.96-39.95 20.84c-6.49 3.14-13.12 6.24-19.79 9.29c-60.54 27.73-124.31 51.45-122.54 56.59c2.39 6.95 20.97 7.53 49.75 66.89c28.58 58.94 52.1 124.11 67 151.19c0.11 0.19 0.21 0.39 0.31 0.58c14.88 26.73 25.31 41.46 0 40.41c-16.88-0.7-55.9-0.7-117.06 0c-0.55-7.27 4.26-12.57 14.41-15.9c15.21-4.99 40.55-15.58 42.25-20.05c1.7-4.48-80.63-108.43-105.58-142.13c-3.37-4.55-7.29-9.58-11.39-14.99c-26.3-34.63-60.59-85.07-11.4-128.79c35.29-31.37 102.6-74.4 158.27-100.08c27.29-12.61 51.78-21.04 68.33-21.9c4.1-0.22 7.71 0.04 10.75 0.81l41.6-17.65c0 0 0 0 0.01 0.01c0.7 1.28 39.92 73.07-20.69 112.27z" />
				<path id="&lt;Path&gt;" class="s17" d="m1431.44 2000.59c-6.38 12.16-21.89 13.77-30.62 13.77h-24.85c-5.57-3.39 1.56-14.29 12.77-16.99c11.21-2.69 13.19-19.05 12.09-35.32c-0.42-6.31-1.12-11.05-4.65-14.84c12.35-8.51 20.75-21.45 25.2-38.83c1.17-4.56 1.98-9.53 2.27-14.9c4.43 2.81 8.48 5.78 12.19 8.94c2.63 2.26 5.09 4.61 7.38 7.09c11.46 25.42-5.38 78.9-11.78 91.07z" />
				<g id="&lt;Group&gt;">
					<path id="&lt;Path&gt;" class="s19" d="m1043.66 1597.53c-5.18 21.67-32.64 48.33-82.37 79.98c-74.59 47.48-61.36 61.55-44.87 84.19c14.96 20.56 16.55 61.64-23.18 59.53c-26.3-34.63-60.59-85.07-11.4-128.79c35.29-31.37 102.6-74.4 158.27-100.08c1.4 1.5 2.59 3.22 3.55 5.16z" />
				</g>
				<path id="&lt;Path&gt;" class="s17" d="m1070.62 2014.31c-16.88-0.7-55.9-0.7-117.06 0c-0.55-7.27 4.26-12.57 14.41-15.9c15.21-4.99 40.55-15.58 42.25-20.05c19.18 9.48 39.2 7.81 60.09-5.03c0.11 0.19 0.21 0.39 0.31 0.58c14.88 26.73 25.31 41.46 0 40.41z" />
			</g>
			<path id="&lt;Path&gt;" class="s20" d="m926.43 1367.2c98.31 5.69 144.53 33.37 138.65 83.04c-8.82 74.51-133.13-31.98-138.65-83.04z" />
			<path id="&lt;Path&gt;" class="s21" d="m820.59 1579.82c-10.32 4.58-19.52 7.31-27.59 8.18c-8.07 0.87-11.96-2.07-11.68-8.82c-13.94-0.1-23.7-10.72-18-25.56c5.7-14.84 19.86-22.28 35.52-9.98c10.44 8.2 17.69 11.53 21.74 9.98l14.97 6.45l-14.97 19.75z" />
			<path id="&lt;Path&gt;" class="s22" d="m1160.8 1553.62c-5.39 27.77-26.68 46.48-63.87 56.13c-55.79 14.48-72.89-0.49-76.47-3.82c-3.6-3.33-14.62-35.48-28.26-52.3c-0.18-0.22-0.36-0.45-0.54-0.66c-8.92-10.88-16.96-18.6-24.12-23.15c-15.47 18.95-38.52 33.2-69.16 42.74c-30.64 9.54-56.56 11.97-77.77 7.29c-8.1-7.11-8.1-15.85 0-26.21c36.43-12.2 63.1-25.35 80.01-39.44c0.48-0.41 0.97-0.81 1.42-1.22c24.7-21.66 16.1-47.15 0-72.94c-16.08-25.77-20.52-38.05-10.51-54.26c5.65-9.15 17.48-16.93 36.84-16.93c14.95 0 34.41 4.66 58.98 16.93c56.36 28.16 138.37 102.95 159.69 138.11c6.43 8.74 11.02 18.65 13.78 29.74z" />
			<g id="&lt;Group&gt;">
				<path id="&lt;Path&gt;" class="s23" d="m945.11 1492.4c-10.07 16.67-31.77 20.83-44.51 21.78c0.48-0.41 0.97-0.81 1.42-1.22c24.7-21.66 16.1-47.15 0-72.94c-16.08-25.77-20.52-38.05-10.51-54.26c5.65-9.15 17.48-16.93 36.84-16.93c-13.51 1.16-18.38 21.42-7.31 33.95c11.08 12.55 38.84 65.2 24.07 89.61z" />
			</g>
			<path id="&lt;Path&gt;" class="s20" d="m979.8 1502.95c8.83-25.72 8.83-48.46 0-68.21c-11.7-26.13 91.53 54.27 11.85 118.22c-8.92-10.88-16.96-18.6-24.12-23.15l12.27-26.86z" />
		</g>
		<g id="&lt;Group&gt;">
			<g id="Group-2 1 ">
				<path id="Fill-12 1 " fill-rule="evenodd" class="s24" d="m381.14 1496.36c5.05 0.05 9.66 4.44 9.71 9.71c0.06 21 0.2 42 0 63c-0.08 5-4.38 9.57-9.65 9.65c-21.72 0.21-43.44 0.21-65.15 0c-5.02-0.08-9.57-4.38-9.65-9.65c-0.19-21.02-0.19-42.04 0-63.06c0.08-5 4.38-9.57 9.65-9.65c21.7-0.21 43.39-0.07 65.09 0zm-64.97 2.37c-3.84 0.01-7.36 3.3-7.4 7.35c-0.06 20.99-0.19 41.97 0 62.96c0.06 3.8 3.31 7.26 7.35 7.3c21.68 0.05 43.36 0.21 65.05 0c3.81-0.06 7.26-3.33 7.3-7.35c0.06-20.98 0.2-41.97 0-62.95c-0.06-3.8-3.31-7.26-7.35-7.3c-21.65-0.06-43.3 0-64.95 0z" />
				<path id="Fill-13 1 " class="s24" d="m337.03 1525.31c0.23-1.29 1.35-2.23 2.65-2.23h17.97c1.31 0 2.43 0.94 2.65 2.23c1.13 6.36 4.37 24.62 5.69 32.02c0.14 0.79-0.08 1.59-0.59 2.2c-0.51 0.61-1.27 0.96-2.07 0.96h-29.34c-0.8 0-1.55-0.35-2.07-0.96c-0.51-0.61-0.73-1.42-0.59-2.2c1.31-7.4 4.56-25.66 5.69-32.02z" />
				<path id="Fill-14 1 " class="s24" d="m348.93 1515.92c3.6 0.03 7.04 2.52 8.16 5.97c0.3 0.92 0.51 1.89 0.41 2.86c-0.12 1.15-1.5 1.99-2.61 1.49c-0.69-0.32-1.05-1.08-1.08-1.87c-0.08-2.05-1.56-3.96-3.52-4.54c-1.66-0.49-3.56-0.03-4.82 1.16c-0.96 0.92-1.53 2.24-1.53 3.58c-0.04 0.46-0.17 0.84-0.38 1.12c-0.6 0.79-1.89 0.95-2.67 0.28c-0.51-0.44-0.67-1.14-0.64-1.85c0.21-4.2 3.82-7.96 8.18-8.18c0.17-0.01 0.33-0.01 0.5-0.01z" />
			</g>
			<path id="Fill-15 1 " class="s25" d="m462.79 1943.48c20.24 0 36.67 16.43 36.67 36.67c0 20.24-16.43 36.67-36.67 36.67c-20.24 0-36.67-16.43-36.67-36.67c0-20.24 16.43-36.67 36.67-36.67z" />
			<path id="Fill-16 1 " class="s25" d="m597.59 1881.81l0-0.03l87.7-311.58c1.04-2.51 2.77-4.74 5.31-5.6c1.26-0.43 2.62-0.4 3.96-0.35c1.7 0.48 2.22 0.46 3.67 1.53c2.14 1.58 3.45 4.25 3.37 6.94c-0.02 0.67-0.2 1.32-0.31 1.98l-87.69 311.55l-21.89 79.75c-0.56 1.33-1.14 2.69-2.16 3.69c-1.03 1.02-2.31 1.76-3.72 2.13c-0.69 0.19-1.43 0.19-2.14 0.28h-188.68c-3.35-0.41-6.56-2.16-7.77-5.35c-1.68-4.41 1.18-9.86 5.78-11c0.65-0.16 1.33-0.16 1.99-0.24h182.34l20.22-73.68l0.01-0.03z" />
			<path id="Fill-17 1 " class="s25" d="m821.47 1575.92c0 1.64-0.62 3.22-1.74 4.38c-1.11 1.16-2.62 1.81-4.2 1.81h-140.18c-1.57 0-3.09-0.65-4.2-1.81c-1.11-1.16-1.74-2.74-1.74-4.38v-3.71c0-1.64 0.63-3.22 1.74-4.38c1.11-1.16 2.62-1.81 4.2-1.81h140.18c1.57 0 3.09 0.65 4.2 1.81c1.11 1.16 1.74 2.74 1.74 4.38v3.71z" />
			<g id="Fill-19 1 ">
			</g>
			<g id="Fill-23 1 ">
			</g>
			<g id="Fill-27 1 ">
			</g>
			<path id="Fill-30 1 " class="s9" d="m807.16 1575.92c0 1.64-0.62 3.22-1.72 4.38c-1.1 1.16-2.59 1.81-4.14 1.81h-61.62c-1.55 0-3.05-0.65-4.14-1.81c-1.1-1.16-1.72-2.74-1.72-4.38v-3.71c0-1.64 0.62-3.22 1.72-4.38c1.1-1.16 2.59-1.81 4.14-1.81h61.62c1.55 0 3.05 0.65 4.14 1.81c1.1 1.16 1.72 2.74 1.72 4.38v3.71z" />
			<g id="Fill-33 1 ">
			</g>
			<path id="Fill-37 1 " class="s26" d="m817.97 1566.03c1.69 0.47 2.22 0.44 3.67 1.51c2.13 1.56 3.47 4.25 3.4 6.94c-0.02 0.67-0.2 1.32-0.29 1.98l-95.97 351.91c-5.49 19.92-21.29 36.58-41.23 42.76c-5.87 1.82-12.03 2.73-18.17 2.75h-147.39c-3.34-0.41-6.53-2.16-7.75-5.37c-1.67-4.42 1.18-9.9 5.77-11.03c0.65-0.16 1.32-0.16 1.98-0.24c49.2 0 98.41 0.13 147.61 0c19.37-0.15 37.88-14.02 43.19-33.29l95.96-351.89c1.03-2.52 2.73-4.77 5.25-5.66c1.25-0.44 2.61-0.41 3.95-0.38z" />
			<path id="Fill-38 1 " class="s25" d="m631.26 1763.05c1.35 0.65 1.81 0.69 2.81 1.91c2.18 2.65 1.69 7.36-1.28 9.36c-1.29 0.87-1.74 0.77-3.21 0.99h-365.8c-1.47-0.22-1.92-0.12-3.21-0.99c-2.78-1.89-3.58-6.56-1.28-9.36c1.1-1.35 2.77-1.9 4.49-2.16h365.8c0.56 0.08 1.11 0.17 1.67 0.25z" />
			<path id="Fill-39 1 " class="s25" d="m582.97 1825.66c1.35 0.65 1.81 0.69 2.81 1.91c2.21 2.69 1.61 7.41-1.27 9.37c-1.28 0.87-1.74 0.77-3.21 0.99h-301.42c-1.46-0.22-1.92-0.12-3.2-0.99c-2.78-1.89-3.58-6.56-1.28-9.37c1.1-1.35 2.77-1.9 4.48-2.16h301.42c0.56 0.09 1.11 0.17 1.67 0.25z" />
			<path id="Fill-40 1 " class="s22" d="m571.02 1698.39h103.76v207.52h-103.76v-207.52z" />
			<path id="Fill-41 1 " class="s22" d="m623.22 1659.04c16.07 0.15 31.21 13.4 31.86 30.43c0.01 0.39 0.02 0.78 0.02 1.17v17.37c-0.12 3.58-4.81 6.18-7.89 3.61c-0.9-0.75-1.5-1.83-1.66-2.98c-0.04-0.28-0.03-0.35-0.04-0.63c0-6.15 0.28-12.3-0.03-18.46c-0.42-8.43-6.17-16.34-14.11-19.47c-8.84-3.48-19.82-0.69-25.83 6.63c-3.2 3.9-4.99 8.88-5.01 13.94v17.36c-0.1 2.95-3.26 5.42-6.22 4.51c-1.74-0.53-3.09-2.11-3.33-3.88c-0.04-0.28-0.03-0.35-0.04-0.63c0-9.48-1.23-19.32 1.81-27.84c4.34-12.18 16.62-21.09 30.26-21.13h0.21z" />
			<path id="Fill-42 1 " class="s24" d="m551.34 1907.7h-205.73l15.66-284.44h173.99l16.08 284.44z" />
			<g id="Fill-43 1 ">
				<path id="path-15 1 " class="s27" d="m299.1 1690.92c-15.43 20.14-25.1 32.78-29.03 37.91c-0.85 1.11-2.18 1.77-3.58 1.77h-139.82c-1.24 0-2.43-0.49-3.3-1.36c-0.88-0.87-1.37-2.06-1.37-3.29v-69.41c0-1.24 0.49-2.42 1.37-3.29c0.88-0.87 2.06-1.36 3.3-1.36h139.84c1.39 0 2.71 0.64 3.56 1.74c3.93 5.05 13.61 17.48 29.03 37.3z" />
			</g>
			<path id="Fill-44 1 " class="s28" d="m275.85 1684.08c4.94 0 8.94 4.01 8.94 8.94c0 4.94-4.01 8.94-8.94 8.94c-4.94 0-8.94-4.01-8.94-8.94c0-4.94 4.01-8.94 8.94-8.94z" />
			<path id="Fill-45 1 " class="s29" d="m385.87 1642.94c5.43 0 9.84 4.41 9.84 9.84c0 5.43-4.41 9.84-9.84 9.84c-5.43 0-9.84-4.41-9.84-9.84c0-5.43 4.41-9.84 9.84-9.84z" />
			<path id="Fill-46 1 " class="s9" d="m383.85 1650.13c2.71 0.54 3.96 4.1 1.84 6.2c-11.9 10.61-23.77 21.26-35.69 31.83c-6.14 5.38-14.13 8.42-22.29 8.44h-50.22c-2.88-0.16-4.64-4.05-2.43-6.16c0.61-0.58 1.02-0.9 2.43-0.98c16.79 0 33.58 0.05 50.37 0c6.41-0.06 12.76-2.49 17.6-6.79l35.55-31.7c0.73-0.58 1.13-1.01 2.85-0.86z" />
			<path id="Fill-47 1 " class="s9" d="m851.88 1575.92c0 1.64-0.62 3.22-1.72 4.38c-1.1 1.16-2.59 1.81-4.14 1.81h-61.62c-1.55 0-3.05-0.65-4.14-1.81c-1.1-1.16-1.72-2.74-1.72-4.38v-3.71c0-1.64 0.62-3.22 1.72-4.38c1.1-1.16 2.59-1.81 4.14-1.81h61.62c1.55 0 3.05 0.65 4.14 1.81c1.1 1.16 1.72 2.74 1.72 4.38v3.71z" />
			<path id="Fill-48 1 " class="s9" d="m618.43 1943.48c20.24 0 36.67 16.43 36.67 36.67c0 20.24-16.43 36.67-36.67 36.67c-20.24 0-36.67-16.43-36.67-36.67c0-20.24 16.43-36.67 36.67-36.67z" />
			<g id="Fill-48-Copy 1 ">
				<path id="&lt;Path&gt;" class="s30" d="m618.43 1957.79c12.34 0 22.36 10.02 22.36 22.36c0 12.34-10.02 22.36-22.36 22.36c-12.34 0-22.36-10.02-22.36-22.36c0-12.34 10.02-22.36 22.36-22.36z" />
			</g>
			<path id="Fill-49 1 " fill-rule="evenodd" class="s23" d="m526.94 1903.49c3.98 0.49 7.74 3.12 8.25 7.33c0.49 4.03-2.34 8.12-6.26 9.09c-0.65 0.16-1.33 0.16-1.99 0.24c-65.6 0-131.19 0.18-196.79 0c-19.78-0.15-38.9-13.6-45.18-33.2c-0.15-0.47-0.29-0.94-0.43-1.42l-45.93-160.4c-0.28-1.67-0.5-2.11-0.18-3.81c0.46-2.5 2.16-4.79 4.46-5.94c1.54-0.77 2.03-0.68 3.71-0.87h215.82c0.66 0.08 1.33 0.16 1.99 0.24c2.54 0.97 4.83 2.62 5.78 5.13c1.43 3.79-0.3 8.43-3.91 10.33c-1.59 0.84-2.11 0.74-3.86 0.96h-67.18l11.4 46.25h51.37l1.67 0.24c1.35 0.62 1.81 0.65 2.81 1.81c2.18 2.52 1.68 6.99-1.28 8.9c-1.28 0.83-1.74 0.73-3.21 0.94h-48.43l12.4 50.34h53.83l1.67 0.24c1.35 0.62 1.81 0.66 2.81 1.81c2.19 2.54 1.67 7-1.28 8.9c-1.28 0.83-1.74 0.73-3.21 0.94h-50.9l12.8 51.96h89.24zm-114.26-51.96h-60.29l12.8 51.96h60.29l-12.8-51.96zm-120.63 0c2.83 9.85 5.67 19.7 8.51 29.54c3.82 12.97 16.35 22.38 29.86 22.42h22.55l-12.8-51.96h-48.12zm-17.81-62.23c4.79 16.78 9.58 33.56 14.39 50.34h48.6l-12.4-50.34h-50.59zm123.11 0h-60.29l12.4 50.34h60.3l-12.4-50.34zm-86.84-58.14h-52.87c4.41 15.41 8.81 30.83 13.21 46.25h51.05l-11.4-46.25zm72.52 0h-60.3l11.4 46.25h60.3l-11.4-46.25z" />
			<path id="Fill-50 1 " fill-rule="evenodd" class="s26" d="m772.31 1715.55l0.6-2.19c1.03-2.51 2.74-4.75 5.28-5.63c1.26-0.44 2.62-0.41 3.96-0.38c1.3 0.35 2.61 0.72 3.69 1.5c1.64 1.19 2.8 2.98 3.23 4.92c0.39 1.76 0.16 2.23-0.1 3.96l-43.17 157.08c-5.48 19.74-21.4 36.43-41.4 42.58c-5.9 1.82-12.08 2.72-18.25 2.74h-146.68c-4.33 0-8.69 0.17-12.97 0h-11.19c-2.88-0.35-5.64-1.68-7.14-4.07c-13.74-5.92-24.91-17.87-29.2-32.61l-45.36-157.34c-0.28-1.66-0.5-2.1-0.18-3.79c0.47-2.53 2.19-4.77 4.47-5.91c1.54-0.77 2.03-0.68 3.71-0.87h330.7zm-91.3 188.04l28.19-113.62h-67.81l-28.2 113.67c22.61 0.01 45.21 0 67.82-0.05zm-80.06 0.04l28.2-113.67h-65.02l-28.18 113.61h3.52l0.06 0.01c20.48 0.01 40.95 0.04 61.43 0.05zm-49.07-113.67h-64.12l-7.27 29.3c-0.42 1.46-0.72 1.81-1.28 2.45c-0.19 0.22-0.4 0.42-0.62 0.6c5.45 18.92 10.91 37.83 16.41 56.74c3.73 12.55 15.37 22.49 28.75 24.24l28.12-113.33zm199.98 0h-30.42l-28.03 112.97c16.83-2.93 31.65-15.63 36.33-32.51l22.11-80.46zm-276.34 0h-6.22l3.34 11.62l2.88-11.62zm292.24-57.85h-31.97l-11.42 46.01h30.74l12.65-46.01zm-44.21 0h-67.81l-11.41 46.01h67.81l11.42-46.01zm-80.05 0h-65.03l-11.42 46.01h65.03l11.42-46.01zm-77.27 0h-64.12l-11.42 46.01h64.12l11.41-46.01zm-76.36 0h-37.21c4.42 15.34 8.83 30.67 13.24 46.01h12.56l11.42-46.01z" />
			<path id="Fill-51 1 " class="s9" d="m743.97 1838.19c1.35 0.65 1.81 0.69 2.81 1.91c2.21 2.69 1.61 7.41-1.28 9.37c-1.28 0.87-1.74 0.77-3.21 0.99h-263.74c-3.36-0.51-6.38-3.41-5.87-7.15c0.25-1.79 1.26-3.42 2.67-4.38c1.29-0.87 1.74-0.77 3.21-0.99h263.74c0.56 0.09 1.11 0.17 1.67 0.26z" />
			<g id="Fill-52 1 ">
			</g>
			<g id="&lt;Group&gt;">
				<path id="path-17 1 " class="s27" d="m578.18 1655.95c0 5.56-2.2 10.9-6.11 14.84c-3.91 3.94-9.21 6.15-14.74 6.15h-113.94c-5.53 0-10.83-2.21-14.74-6.15c-3.91-3.94-6.11-9.27-6.11-14.84v-124.41c0-5.56 2.2-10.9 6.11-14.84c3.91-3.94 9.21-6.15 14.74-6.15h113.94c5.53 0 10.83 2.21 14.74 6.15c3.91 3.94 6.11 9.27 6.11 14.84v124.41z" />
				<path id="Fill-53 1 " class="s9" d="m540.44 1540.99c0.52 0.06 0.65 0.06 1.16 0.17c5.5 1.14 9.31 7.53 7.5 12.99c-0.37 1.11-0.93 2.15-1.65 3.07c-0.32 0.41-0.42 0.49-0.78 0.87l-85.62 85.64c-3.89 3.67-10.45 3.76-14.2 0c-3.43-3.43-3.82-9.48-0.77-13.33c0.32-0.41 0.42-0.49 0.77-0.87l85.62-85.64c2.14-2.02 4.94-3.08 7.98-2.9z" />
				<path id="Fill-54 1 " class="s9" d="m467.26 1540.97c7.9 0 14.31 6.41 14.31 14.31c0 7.9-6.41 14.31-14.31 14.31c-7.9 0-14.31-6.41-14.31-14.31c0-7.9 6.41-14.31 14.31-14.31z" />
				<path id="Fill-55 1 " class="s9" d="m538.82 1612.53c7.9 0 14.31 6.41 14.31 14.31c0 7.9-6.41 14.31-14.31 14.31c-7.9 0-14.31-6.41-14.31-14.31c0-7.9 6.41-14.31 14.31-14.31z" />
			</g>
			<g id="Oval-Copy-4 1 ">
			</g>
		</g>
	</g>
</svg>