<svg version="1.2" xmlns="http://www.w3.org/2000/svg" viewBox="0 0 2099 2099" width="2099" height="2099">
	<title>login_verify_banner-svg</title>
	<style>
		.s0 { opacity: .4;fill: #ffffff } 
		.s1 { fill: #48b5ae } 
		.s2 { fill: #3a9c99 } 
		.s3 { fill: #00ffc3 } 
		.s4 { fill: #109475 } 
		.s5 { fill: #006c53 } 
		.s6 { fill: #ffa080 } 
		.s7 { fill: #dd8568 } 
		.s8 { fill: #ffffff } 
		.s9 { fill: #140045 } 
		.s10 { fill: #43385f } 
		.s11 { fill: #ea7a9b } 
		.s12 { fill: #9e4ebf } 
		.s13 { fill: #d9d5d5 } 
		.s14 { fill: #faaa6d } 
		.s15 { fill: #e18462 } 
		.s16 { fill: #000000 } 
		.s17 { fill: #242b76 } 
		.s18 { fill: #5158a7 } 
		.s19 { fill: #3a42a6 } 
		.s20 { fill: #ea9f66 } 
		.s21 { fill: #626ce1 } 
		.s22 { fill: #8089ef } 
		.s23 { fill: #ffd255 } 
		.s24 { fill: #41467f } 
		.s25 { fill: #fffefe } 
		.s26 { fill: #ff8282 } 
		.s27 { fill: #e95e5e } 
		.s28 { fill: #f5f4ff } 
		.s29 { fill: #d8d6ff } 
	</style>
	<g id="Layer 1">
		<g id="&lt;Group&gt;">
			<path id="&lt;Path&gt;" class="s0" d="m3027 297v1802h-2241.3c-46.9-34-86.6-70.9-119.1-109.8q-21.6-25.8-38.8-52.6c-4.4-6.8-8.5-13.5-12.4-20.3-61.9-107.4-73.6-224.8-33.4-336.6 30.5-84.7 90.9-166.2 181.8-237.5 346.2-271.8 824.6-647.3 1331.5-1045.2 0 0 931.7 0 931.7 0z"/>
			<path id="&lt;Path&gt;" class="s0" d="m2099 872.2v1226.8h-1398.7c-29.3-27.6-54.1-57.5-74.3-89.1q-13.5-20.9-24.3-42.7-4-8.2-7.7-16.5c-38.6-87.2-45.9-182.5-20.8-273.2 590 136.4 836.6-93.9 1197.8-530.8 104.1-126 217.3-213.7 328-274.5z"/>
			<path id="&lt;Path&gt;" class="s1" d="m1794 1930.3v168.7h-1098.7c-23-25.7-42.4-53.5-58.3-82.9q-10.6-19.5-19.1-39.8c27.8-6.2 56.8-12.5 87.1-18.7 306.4-62.4 732.8-114.2 1089-27.3z"/>
			<path id="&lt;Path&gt;" class="s2" d="m1698.8 1988c0 19.3-297.6 35-664.8 35-148.8 0-286.3-2.6-397-6.9q-10.6-19.5-19.1-39.8-3.2-7.6-6-15.3c29.1-1.3 60.2-2.4 93.1-3.4 97-2.9 209.3-4.6 329-4.6 367.2 0 664.9 15.7 664.9 35z"/>
			<path id="&lt;Path&gt;" class="s3" d="m1646 1928.1q0-0.8 0-1.5c0-41.8 11.7-75.8 26.2-75.8 14.5 0 26.3 34 26.3 75.8q0 0.7 0 1.5z"/>
			<path id="&lt;Path&gt;" class="s4" d="m1681.9 1928.1q0-0.5 0-1c0-26.5 7.4-48 16.6-48 9.2 0 16.6 21.5 16.6 48q0.1 0.5 0 1h-33.2z"/>
			<path id="&lt;Path&gt;" class="s5" d="m823.8 2099h-78.6c1.4-59.1 18.5-105.9 39.3-105.9 13 0 24.5 18.1 31.7 46 4.3 17 7.1 37.6 7.6 59.9z"/>
			<path id="&lt;Path&gt;" class="s4" d="m848.7 2099h-49.6c1.2-28.1 8-51.3 17.1-59.9 2.4-2.3 5-3.5 7.7-3.5 12.8 0 23.3 27.7 24.8 63.4z"/>
		</g>
		<g id=" 8 2 ">
			<path id="&lt;Path&gt;" class="s6" d="m1651.1 1229.9q13.4-22.8 21.4-21.4c8 1.3 5 4.4 26.8 1q21.8-3.3 29 16.1-40.2 13.6-46.1 21.4-6 7.9-31.1-17.1z"/>
			<path id="&lt;Path&gt;" class="s6" d="m1390.5 1176.3q2.7-13.1-5.3-27.9c-8-14.8-10.1-32.5 6.4-34.3q16.5-1.7 20.4 21.5 6-3.1 7.5 3.2 1.5 6.3-5.4 26.8c0 0-23.6 10.7-23.6 10.7z"/>
			<g id="&lt;Group&gt;">
				<path id="&lt;Path&gt;" class="s6" d="m1548.6 1275.8c-1.6 12.9-6.6 32.6-20 48.6-6.8 8.2-15.8 15.4-27.6 20.2-19.6 8.1-29.9 6.9-35.1 2.5q0 0 0 0c-1.4-1.1-2.4-2.5-3.1-4-2.9-6.1-1.1-14.1 0.3-16.7 3-5.6 13.3-17.2 19.6-29.1 5-9.4-5.6-16.4-6.9-26.2-0.4-2.7 0-5.7 1.7-9q7.6-15 34.9-26.2 38.6 20.6 36.2 39.9z"/>
			</g>
			<g id="&lt;Group&gt;">
				<path id="&lt;Path&gt;" class="s7" d="m1528.5 1324.5c-6.8 8.1-15.7 15.3-27.5 20.2-19.6 8-29.9 6.8-35.1 2.5q0 0 0-0.1-1.5-2-3.1-4c-2.9-6.1-1.1-14 0.3-16.6 3-5.7 13.3-17.3 19.6-29.2 5-9.4-5.6-16.4-6.9-26.1q0.6 0.8 1.2 2 10.8 22.9 49.4 3.1 13.8 10.6 2.1 48.2z"/>
			</g>
			<path id="&lt;Path&gt;" class="s8" d="m1531 1895.7q16.5 92.7 16.1 96.4c-0.4 3.8-4.4 5.9-37.6 5.4q-33.1-0.5-39.6-1.1-6.2-8 2.1-12.8c8.4-4.9 29.6-13 31.1-25.8q1.5-12.7-13.9-54.6l41.8-7.5z"/>
			<path id="&lt;Path&gt;" class="s8" d="m1234 1857.1l-16 50.4-105.1 34.3q-11.6-5.4 1.1-18.3c12.6-12.8 42.6-28.8 45-31q2.4-2.3 32.2-47.2c0 0 42.8 11.8 42.8 11.8z"/>
			<g id="&lt;Group&gt;">
				<path id="&lt;Path&gt;" class="s9" d="m1854.8 1414.3c-22.5 61.9-73.9 103.9-152.9 94.6-10.7-1.3-22-3.5-33.7-6.7q-98.2-27-140.4-99.7l-23.6-63.3q6.5-20.6 18.2-37.5c-12.6-10.8-10.6-22.2 0-39.6q-10.6-10.8-10.7-25.8 8.7-4.2 20.8-1.7 1.8 0.4 3.7 1 1.2 0.3 2.3 0.7 0.2-0.1 0.4-0.2c32.2-17.4 53.2-15.9 67.3-5.9 5 3.6 9.2 8.3 12.7 13.6 10.1 15.3 24.7 9.6 43 4.8 6-1.6 12.4-3.1 19.2-3.7 27.5-2.5 39.7 28.3 39.7 49.3 0 7.9 3.5 16.8 10.6 23.7 11.7 11.6 32.8 17.7 63 4.8q0.7-0.3 1.4-0.6c49.3-21.9 84.4 21.9 59 92.2z"/>
				<g id="&lt;Group&gt;">
					<path id="&lt;Path&gt;" class="s10" d="m1532.5 1234.6q1.8 0.4 3.7 1-2-0.5-3.7-1z"/>
					<path id="&lt;Path&gt;" class="s10" d="m1606.2 1230.2c-7.3-0.1-14.2 0.8-20.5 2.9-18.7 6.3-35.3 5.3-46.8 3 32.2-17.4 53.2-15.9 67.3-5.9z"/>
					<path id="&lt;Path&gt;" class="s10" d="m1693.9 1282.4c-6.3-13-18-24.8-32-33.8 6-1.6 12.4-3.1 19.2-3.7 27.5-2.5 39.7 28.3 39.6 49.3 0 7.9 3.6 16.8 10.7 23.7-20.9-5.1-27.9-15.8-37.5-35.5z"/>
					<path id="&lt;Path&gt;" class="s10" d="m1854.8 1414.3c-22.5 61.9-73.9 103.9-152.9 94.6 12-7 7.6-19.4 11.3-33.5 5-18.9 47.7-23.3 79.4-54.7 29.9-29.6 54.7-91.1 1.7-98q0.8-0.3 1.5-0.6c49.2-21.9 84.4 21.9 58.9 92.2z"/>
				</g>
			</g>
			<g id="&lt;Group&gt;">
				<path id="&lt;Path&gt;" class="s11" d="m1534.2 1907.5q-29.7 22.5-42.9 8.5c-29-68.9-44.7-117.3-53.5-151.1q0 0 0 0-1.1-4.3-2.1-8.3-0.4-2-0.9-3.8c-2.6-11-4.4-20-5.7-27.6-5.3-30.7-12.7-105.6-12.8-107.2q0 0 0 0l-182.3 246.6q-40.4 16.8-49.3-10.7 0.9-1.7 1.8-3.4 84.8-165.3 174-344l110.6 30q0 0 0 0l63.1 17.2q-8.2 129-10.7 177.9-2.5 49 10.7 175.9z"/>
				<g id="&lt;Group&gt;">
					<g id="&lt;Group&gt;">
						<path id="&lt;Path&gt;" class="s12" d="m1435.7 1756.4q0 0.1 0 0.2-0.4-2-0.9-3.9 0.5 1.2 0.9 3.7z"/>
						<path id="&lt;Path&gt;" class="s12" d="m1534.2 1907.5q-29.7 22.5-42.9 8.5c-29-68.9-44.7-117.3-53.5-151.1 11.3 30.4 52.6 8.5 47.2-51.4-5.7-64.3-13.8-175.6-13.9-177l63.1 17.2q-8.2 129-10.7 177.9-2.5 49 10.7 175.9z"/>
					</g>
					<g id="&lt;Group&gt;">
						<path id="&lt;Path&gt;" class="s12" d="m1416.3 1618q0 0 0 0l-182.3 246.6q-40.4 16.8-49.3-10.8 0.9-1.6 1.8-3.3c7.6 7.8 30.6 19.5 75.8-47.9 56.9-85 122.7-190.2 133-216.5q10.2-26.2 0-49.1l11.8 6.6 9.2 74.4z"/>
					</g>
				</g>
			</g>
			<g id="&lt;Group&gt;">
				<g id="shirt 2 ">
					<path id="&lt;Path&gt;" class="s8" d="m1543.8 1419.7c-0.1 1.5-2.4 28.4 6.5 52.5 3.6 9.8 6.2 21.5 7.5 33.1q0 0 0 0c1.8 17.4 0.4 34.4-5.4 44.1-9.6 16.1-42.4 24.9-88.9 6.4-13.5-5.4-23.8-7.8-32.2-8.6-20.9-2.2-31.2 4.9-52.5 0-30-6.9-29.1-32.6-26.8-47.2 2.2-14.5 23-27.3 48.2-53.6q25.2-26.3 23.6-58.9 0 0 0-0.1c-15-21.8-25.7-42.3-33.3-61.5q0 0 0-0.1c-25.9-65.8-14.3-117.5-2.1-160.2q9.3-10.9 29-2.2l1 67.6q14.9 37.1 32.2 76.1c3.9 8.8 8.3 15.2 12.9 19.7q-9.1 39.3 41.8 7.1l0.1-0.1q11.1-3.3 20.2-1 60.1-50.9 121.2-102.9c10.5-4.1 19.1-3.4 25.8-0.8q11.3 4.2 17.1 13.6c-7 17.6-79.6 92.1-99.7 118q-20.2 25.8-46.1 58.9-0.1 0.1 0 0.1z"/>
				</g>
				<g id="&lt;Group&gt;">
					<g id="&lt;Group&gt;">
						<path id="&lt;Path&gt;" class="s13" d="m1552.4 1549.4c-9.6 16.1-42.4 24.9-89 6.4-13.4-5.4-23.7-7.7-32.2-8.6 11.6-12.2 18.9-29.1 29-47.2 17.8-31.7 33.1-32.7 52.6 5.4 14.2 27.7 33.1 17.1 44.9-0.1 1.9 17.4 0.5 34.4-5.3 44.1z"/>
					</g>
					<g id="&lt;Group&gt;">
						<path id="&lt;Path&gt;" class="s13" d="m1689.7 1242.8c-7 17.6-79.6 92-99.8 117.9q-20.1 25.8-46 59-0.1 0 0 0c-10 7.7-19.8 15.1-24.7 18.2-12.2 7.7-32.5-11.1-8.6-34.3 24-23.2 37-41.7 61.1-68.6 18.7-21 76-80.3 100.9-105.9q11.3 4.3 17.1 13.7z"/>
					</g>
					<g id="&lt;Group&gt;">
						<path id="&lt;Path&gt;" class="s13" d="m1435.2 1348c-10.3 16.9-11.4 38.1-11.5 39.4-14.9-21.8-25.7-42.2-33.3-61.5q0 0 0 0c-0.5-3.3-7.9-46.1 7.6-30.7q16.1 15.9 37.2 52.8z"/>
					</g>
				</g>
			</g>
		</g>
		<g id="&lt;Group&gt;">
			<g id="&lt;Group&gt;">
				<path id="&lt;Path&gt;" class="s14" d="m936.6 1374.8q-30.6 50.2-43.1 24.6c-12.5-25.5-20.1-15.8-35.6-10.3q-2 0.7-4 1.1c-13.7 2.2-25-10.8-26.7-45.4-1.6-29.9 11.2-53 16.7-61.4q1.4-2.1 2.3-3.3c5.3-12.1 46.9-24.8 66.4-8.1 19.6 16.7 19.1 33.4 12.4 59-0.9 3.3-1.3 6.4-1.5 9.4-0.1 3 0.1 5.8 0.5 8.5q2.4 15.8 12.6 25.9z"/>
				<g id="&lt;Group&gt;">
					<path id="&lt;Path&gt;" class="s15" d="m936.6 1374.8q-30.6 50.2-43.1 24.6c-12.5-25.5-20.1-15.8-35.6-10.3q-2 0.7-4 1.1c4.1-1.7 7.9-5 10.5-11.1 10.4-23.6 14.1-29.7 27.9-34.1 7.9-2.4 20.3-4.6 31.2-4.5-0.1 2.9 0.1 5.7 0.5 8.4q2.4 15.8 12.6 25.9z"/>
					<path id="&lt;Path&gt;" class="s16" d="m925 1331c-1.7 6.5-1.8 12.5-1 17.9-14.9 11.5-23.3 12.6-25.1 9.5q-1.8-3.2-6.6-13.5 8-2.9 9.7-9.6c1.6-6.6-5.5-22.4-16.1-14.8-10.7 7.6-10.8 0-11.6-15.5-0.9-15.5-8.3-13.6-18.4-13.6-7.7 0.3-10.9-3.7-12-8q1.4-2.2 2.3-3.3c5.3-12.1 46.9-24.8 66.4-8.1 19.6 16.7 19.1 33.4 12.4 59z"/>
				</g>
			</g>
			<g id="&lt;Group&gt;">
				<path id="&lt;Path&gt;" class="s17" d="m1431.4 2000.6c-6.3 12.2-21.9 13.8-30.6 13.8h-24.8c-5.6-3.4 1.5-14.3 12.7-17 11.3-2.7 13.2-19.1 12.1-35.3-0.4-6.4-1.1-11.1-4.6-14.9-5.6-6-18.1-9.5-47.7-13.1-41.1-5-105.9-16.5-148.6-49.7-7.5-5.8-14.4-12.4-20.3-19.7-30.3-37.4-67.8-132.9-83.7-175.3q-4.8-12.9-7.6-20.9 0.3-3.7 0.9-9.8c2-18.6 7.5-59.8 19.3-88.2 11-26.7 27.7-42.1 52.3-16.9q0 0 0 0c54.5 55.9 66.6 221.5 103.2 258 3.3 3.3 6.8 5.6 10.5 6.6 45.4 12.4 70.2 41.7 101.5 53.2 19.5 7.2 35.1 14.1 47.6 22.1q6.7 4.2 12.2 8.9 4 3.4 7.4 7.1c11.5 25.4-5.4 78.9-11.8 91.1z"/>
				<path id="&lt;Path&gt;" class="s18" d="m1199.9 1884.4c-7.5-5.9-14.4-12.4-20.3-19.7-30.3-37.4-67.9-132.9-83.7-175.3-6.5 3.1-13.1 6.2-19.8 9.2-3.9-22.4 2.8-34.1 13.1-39.9q18.5-10.4 48.4-1.8 0.9 3.3 2.5 9c5.7 19.6 20.7 67 40.2 100.2 25.1 42.7 56.5 113.2 19.6 118.3z"/>
				<path id="&lt;Path&gt;" class="s18" d="m1435.8 1902.4c-4.8 3.5-10 5.7-14.4 6q-2.4 0.2-4.4-0.4c-25.8-7-81.9-20.1-124.3-44.8-28.7-16.7-30.5-38.9-28.7-51.5 3.3 3.2 6.8 5.5 10.5 6.5 45.3 12.4 70.2 41.7 101.5 53.3 19.5 7.1 35.1 14 47.6 22q6.7 4.2 12.2 8.9z"/>
				<path id="&lt;Path&gt;" class="s17" d="m1140.1 1665.9q-2 1.3-4.3 2.6c-12 7-25.6 14-39.9 20.9-6.5 3.1-13.1 6.2-19.8 9.2-60.5 27.8-124.3 51.5-122.5 56.6 2.4 7 20.9 7.6 49.7 66.9 28.6 59 52.1 124.1 67 151.2q0.2 0.3 0.3 0.6c14.9 26.7 25.3 41.5 0 40.4q-25.3-1-117 0-0.9-10.9 14.4-15.9c15.2-5 40.5-15.6 42.2-20 1.7-4.5-80.6-108.5-105.6-142.2-3.3-4.5-7.3-9.6-11.4-15-26.2-34.6-60.5-85-11.4-128.8 35.3-31.3 102.7-74.4 158.3-100 27.3-12.6 51.8-21.1 68.3-21.9 4.1-0.3 7.8 0 10.8 0.8l41.6-17.7q0 0 0 0c0.7 1.3 39.9 73.1-20.7 112.3z"/>
				<path id="&lt;Path&gt;" class="s16" d="m1431.4 2000.6c-6.3 12.2-21.9 13.8-30.6 13.8h-24.8c-5.6-3.4 1.5-14.3 12.7-17 11.3-2.7 13.2-19.1 12.1-35.3-0.4-6.4-1.1-11.1-4.6-14.9q18.5-12.8 25.2-38.8c1.2-4.6 2-9.5 2.3-14.9q6.6 4.2 12.1 8.9 4 3.4 7.4 7.1c11.5 25.4-5.4 78.9-11.8 91.1z"/>
				<g id="&lt;Group&gt;">
					<path id="&lt;Path&gt;" class="s18" d="m1043.7 1597.5q-7.8 32.5-82.4 80c-74.6 47.5-61.4 61.6-44.9 84.2 15 20.6 16.6 61.6-23.2 59.5-26.3-34.6-60.5-85-11.4-128.8 35.3-31.3 102.6-74.4 158.3-100q2.1 2.2 3.6 5.1z"/>
				</g>
				<path id="&lt;Path&gt;" class="s16" d="m1070.6 2014.3q-25.3-1-117 0-0.9-10.9 14.4-15.9c15.2-5 40.5-15.6 42.2-20q28.8 14.2 60.1-5.1 0.2 0.3 0.3 0.6c14.9 26.7 25.3 41.5 0 40.4z"/>
			</g>
			<path id="&lt;Path&gt;" class="s19" d="m926.4 1367.2q147.5 8.5 138.7 83c-8.8 74.5-133.2-31.9-138.7-83z"/>
			<path id="&lt;Path&gt;" class="s20" d="m820.6 1579.8q-15.5 6.9-27.6 8.2-12.1 1.3-11.7-8.8c-13.9-0.1-23.7-10.7-18-25.6 5.7-14.8 19.9-22.3 35.5-10q15.7 12.3 21.8 10l15 6.5c0 0-15 19.7-15 19.7z"/>
			<path id="&lt;Path&gt;" class="s21" d="m1160.8 1553.6q-8.1 41.7-63.9 56.2c-55.8 14.4-72.9-0.5-76.4-3.9-3.6-3.3-14.7-35.4-28.3-52.3q-0.3-0.3-0.5-0.6-13.4-16.4-24.2-23.2-23.2 28.4-69.1 42.8-46 14.3-77.8 7.2-12.1-10.6 0-26.2 54.7-18.3 80-39.4 0.8-0.6 1.4-1.2c24.7-21.7 16.1-47.2 0-73-16-25.7-20.5-38-10.5-54.2 5.7-9.2 17.5-17 36.9-17 14.9 0 34.4 4.7 59 17 56.3 28.1 138.3 102.9 159.6 138.1q9.7 13.1 13.8 29.7z"/>
			<g id="&lt;Group&gt;">
				<path id="&lt;Path&gt;" class="s22" d="m945.1 1492.4c-10.1 16.7-31.8 20.8-44.5 21.8q0.7-0.6 1.4-1.2c24.7-21.7 16.1-47.2 0-73-16.1-25.8-20.5-38-10.5-54.2 5.7-9.2 17.5-17 36.9-17-13.6 1.2-18.4 21.4-7.4 34 11.1 12.5 38.9 65.2 24.1 89.6z"/>
			</g>
			<path id="&lt;Path&gt;" class="s19" d="m979.8 1503q13.2-38.6 0-68.3c-11.7-26.1 91.5 54.3 11.9 118.3q-13.4-16.4-24.2-23.2z"/>
		</g>
		<g id="&lt;Group&gt;">
			<g id="Group-2 1 ">
				<path id="Fill-12 1 " fill-rule="evenodd" class="s23" d="m381.1 1496.4c5.1 0 9.7 4.4 9.7 9.7 0.1 21 0.2 42 0 63 0 5-4.3 9.5-9.6 9.6q-32.6 0.3-65.2 0c-5-0.1-9.5-4.4-9.6-9.6q-0.3-31.6 0-63.1c0.1-5 4.4-9.6 9.6-9.6 21.7-0.3 43.4-0.1 65.1 0zm-64.9 2.3c-3.9 0-7.4 3.3-7.4 7.4-0.1 21-0.2 41.9 0 62.9 0 3.8 3.3 7.3 7.3 7.3 21.7 0.1 43.4 0.2 65.1 0 3.8 0 7.2-3.3 7.3-7.3 0-21 0.2-42 0-63-0.1-3.8-3.3-7.2-7.4-7.3-21.6 0-43.3 0-64.9 0z"/>
				<path id="Fill-13 1 " class="s23" d="m337 1525.3c0.3-1.3 1.4-2.2 2.7-2.2h17.9c1.4 0 2.5 0.9 2.7 2.2 1.1 6.4 4.4 24.6 5.7 32 0.1 0.8-0.1 1.6-0.6 2.2-0.5 0.6-1.3 1-2.1 1h-29.3c-0.8 0-1.6-0.4-2.1-1-0.5-0.6-0.7-1.4-0.6-2.2 1.3-7.4 4.6-25.6 5.7-32z"/>
				<path id="Fill-14 1 " class="s23" d="m348.9 1515.9c3.6 0 7.1 2.5 8.2 6 0.3 0.9 0.5 1.9 0.4 2.8-0.1 1.2-1.5 2-2.6 1.5-0.7-0.3-1.1-1-1.1-1.8-0.1-2.1-1.5-4-3.5-4.6-1.7-0.5-3.6 0-4.8 1.2-1 0.9-1.6 2.2-1.6 3.6q0 0.7-0.3 1.1c-0.6 0.8-1.9 0.9-2.7 0.3-0.5-0.5-0.7-1.2-0.6-1.9 0.2-4.2 3.8-7.9 8.1-8.2q0.3 0 0.5 0z"/>
			</g>
			<path id="Fill-15 1 " class="s24" d="m462.8 1943.5c20.2 0 36.7 16.4 36.7 36.7 0 20.2-16.5 36.6-36.7 36.6-20.3 0-36.7-16.4-36.7-36.6 0-20.3 16.5-36.7 36.7-36.7z"/>
			<path id="Fill-16 1 " class="s24" d="m597.6 1881.8l87.7-311.6c1-2.5 2.8-4.7 5.3-5.6 1.3-0.4 2.6-0.4 4-0.3 1.7 0.4 2.2 0.4 3.6 1.5 2.2 1.6 3.5 4.2 3.4 6.9 0 0.7-0.2 1.3-0.3 2l-87.7 311.6-21.9 79.7c-0.5 1.3-1.1 2.7-2.1 3.7-1.1 1-2.4 1.8-3.8 2.1-0.7 0.2-1.4 0.2-2.1 0.3h-188.7c-3.3-0.4-6.5-2.2-7.8-5.3-1.6-4.5 1.2-9.9 5.8-11 0.7-0.2 1.4-0.2 2-0.3h182.4l20.2-73.7z"/>
			<path id="Fill-17 1 " class="s24" d="m821.5 1575.9c0 1.7-0.6 3.2-1.8 4.4-1.1 1.2-2.6 1.8-4.2 1.8h-140.2c-1.5 0-3-0.6-4.2-1.8-1.1-1.2-1.7-2.7-1.7-4.4v-3.7c0-1.6 0.6-3.2 1.7-4.4 1.2-1.1 2.7-1.8 4.2-1.8h140.2c1.6 0 3.1 0.7 4.2 1.8 1.1 1.2 1.8 2.8 1.8 4.4z"/>
			<g id="Fill-19 1 ">
			</g>
			<g id="Fill-23 1 ">
			</g>
			<g id="Fill-27 1 ">
			</g>
			<path id="Fill-30 1 " class="s8" d="m807.2 1575.9c0 1.7-0.7 3.2-1.8 4.4-1.1 1.2-2.6 1.8-4.1 1.8h-61.6c-1.6 0-3.1-0.6-4.2-1.8-1.1-1.2-1.7-2.7-1.7-4.4v-3.7c0-1.6 0.6-3.2 1.7-4.4 1.1-1.1 2.6-1.8 4.2-1.8h61.6c1.5 0 3 0.7 4.1 1.8 1.1 1.2 1.8 2.8 1.8 4.4z"/>
			<g id="Fill-33 1 ">
			</g>
			<path id="Fill-37 1 " class="s25" d="m818 1566c1.7 0.5 2.2 0.5 3.6 1.5 2.2 1.6 3.5 4.3 3.4 7 0 0.7-0.2 1.3-0.3 2l-95.9 351.9c-5.5 19.9-21.3 36.6-41.3 42.7-5.8 1.9-12 2.8-18.1 2.8h-147.4c-3.4-0.4-6.5-2.2-7.8-5.4-1.6-4.4 1.2-9.9 5.8-11 0.7-0.2 1.3-0.2 2-0.3 49.2 0 98.4 0.2 147.6 0 19.4-0.1 37.9-14 43.2-33.2l96-351.9c1-2.6 2.7-4.8 5.2-5.7 1.3-0.4 2.6-0.4 4-0.4z"/>
			<path id="Fill-38 1 " class="s24" d="m631.3 1763c1.3 0.7 1.8 0.7 2.8 2 2.1 2.6 1.7 7.3-1.3 9.3-1.3 0.9-1.7 0.8-3.2 1h-365.8c-1.5-0.2-1.9-0.1-3.2-1-2.8-1.9-3.6-6.5-1.3-9.3 1.1-1.4 2.8-1.9 4.5-2.2h365.8q0.8 0.1 1.6 0.2z"/>
			<path id="Fill-39 1 " class="s24" d="m583 1825.7c1.3 0.6 1.8 0.7 2.8 1.9 2.2 2.7 1.6 7.4-1.3 9.3-1.3 0.9-1.7 0.8-3.2 1h-301.4c-1.5-0.2-1.9-0.1-3.2-1-2.8-1.9-3.6-6.5-1.3-9.3 1.1-1.4 2.8-1.9 4.5-2.2h301.4q0.8 0.1 1.7 0.3z"/>
			<path id="Fill-40 1 " class="s21" d="m571 1698.4h103.8v207.5h-103.8z"/>
			<path id="Fill-41 1 " class="s21" d="m623.2 1659c16.1 0.2 31.2 13.4 31.9 30.5q0 0.6 0 1.1v17.4c-0.1 3.6-4.8 6.2-7.9 3.6-0.9-0.7-1.5-1.8-1.6-3-0.1-0.2-0.1-0.3-0.1-0.6 0-6.1 0.3-12.3 0-18.5-0.4-8.4-6.2-16.3-14.1-19.4-8.9-3.5-19.8-0.7-25.9 6.6-3.2 3.9-4.9 8.9-5 13.9v17.4c-0.1 3-3.2 5.4-6.2 4.5-1.7-0.5-3.1-2.1-3.3-3.9-0.1-0.2 0-0.3-0.1-0.6 0-9.5-1.2-19.3 1.8-27.8 4.4-12.2 16.7-21.1 30.3-21.2z"/>
			<path id="Fill-42 1 " class="s23" d="m551.3 1907.7h-205.7l15.7-284.4h174z"/>
			<g id="Fill-43 1 ">
				<path id="path-15 1 " class="s26" d="m299.1 1690.9q-23.1 30.2-29 37.9c-0.9 1.1-2.2 1.8-3.6 1.8h-139.8c-1.3 0-2.5-0.5-3.3-1.4-0.9-0.8-1.4-2-1.4-3.2v-69.5c0-1.2 0.5-2.4 1.4-3.2 0.9-0.9 2-1.4 3.3-1.4h139.8c1.4 0 2.7 0.6 3.6 1.7q5.9 7.6 29 37.3z"/>
			</g>
			<path id="Fill-44 1 " class="s27" d="m275.9 1684.1c4.9 0 8.9 4 8.9 8.9 0 5-4 9-8.9 9-5 0-9-4-9-9 0-4.9 4-8.9 9-8.9z"/>
			<path id="Fill-45 1 " class="s28" d="m385.9 1642.9c5.4 0 9.8 4.5 9.8 9.9 0 5.4-4.4 9.8-9.8 9.8-5.5 0-9.9-4.4-9.9-9.8 0-5.5 4.4-9.9 9.9-9.9z"/>
			<path id="Fill-46 1 " class="s8" d="m383.9 1650.1c2.7 0.6 3.9 4.1 1.8 6.2-11.9 10.6-23.8 21.3-35.7 31.9-6.1 5.3-14.1 8.4-22.3 8.4h-50.2c-2.9-0.2-4.6-4-2.4-6.2 0.6-0.5 1-0.9 2.4-0.9 16.8 0 33.6 0 50.4 0 6.4-0.1 12.7-2.5 17.6-6.8l35.5-31.7c0.7-0.6 1.1-1 2.9-0.9z"/>
			<path id="Fill-47 1 " class="s8" d="m851.9 1575.9c0 1.7-0.6 3.2-1.7 4.4-1.1 1.2-2.6 1.8-4.2 1.8h-61.6c-1.5 0-3-0.6-4.1-1.8-1.1-1.2-1.8-2.7-1.8-4.4v-3.7c0-1.6 0.7-3.2 1.8-4.4 1.1-1.1 2.6-1.8 4.1-1.8h61.6c1.6 0 3.1 0.7 4.2 1.8 1.1 1.2 1.7 2.8 1.7 4.4z"/>
			<path id="Fill-48 1 " class="s8" d="m618.4 1943.5c20.3 0 36.7 16.4 36.7 36.7 0 20.2-16.4 36.6-36.7 36.6-20.2 0-36.6-16.4-36.6-36.6 0-20.3 16.4-36.7 36.6-36.7z"/>
			<g id="Fill-48-Copy 1 ">
				<path id="&lt;Path&gt;" class="s29" d="m618.4 1957.8c12.4 0 22.4 10 22.4 22.3 0 12.4-10 22.4-22.4 22.4-12.3 0-22.3-10-22.3-22.4 0-12.3 10-22.3 22.3-22.3z"/>
			</g>
			<path id="Fill-49 1 " fill-rule="evenodd" class="s22" d="m526.9 1903.5c4 0.5 7.8 3.1 8.3 7.3 0.5 4-2.3 8.1-6.3 9.1-0.6 0.2-1.3 0.2-2 0.2-65.6 0-131.1 0.2-196.7 0-19.8-0.1-38.9-13.6-45.2-33.2q-0.3-0.7-0.5-1.4l-45.9-160.4c-0.3-1.6-0.5-2.1-0.2-3.8 0.5-2.5 2.2-4.8 4.5-5.9 1.5-0.8 2-0.7 3.7-0.9h215.8q1 0.1 2 0.2c2.6 1 4.8 2.7 5.8 5.2 1.4 3.8-0.3 8.4-3.9 10.3-1.6 0.8-2.1 0.7-3.9 1h-67.2l11.4 46.2h51.4l1.7 0.3c1.3 0.6 1.8 0.6 2.8 1.8 2.2 2.5 1.7 7-1.3 8.9-1.3 0.8-1.7 0.7-3.2 0.9h-48.4l12.4 50.3h53.8l1.7 0.3c1.3 0.6 1.8 0.6 2.8 1.8 2.2 2.5 1.7 7-1.3 8.9-1.3 0.8-1.7 0.7-3.2 0.9h-50.9l12.8 52h89.2zm-114.2-52h-60.3l12.8 52h60.3zm-120.7 0q4.3 14.8 8.6 29.5c3.8 13 16.3 22.4 29.8 22.5h22.6l-12.8-52zm-17.8-62.2q7.1 25.1 14.3 50.3h48.6l-12.4-50.3zm123.2 0h-60.3l12.4 50.3h60.3c0 0-12.4-50.3-12.4-50.3zm-86.9-58.2h-52.9q6.7 23.1 13.3 46.3h51c0 0-11.4-46.3-11.4-46.3zm72.5 0h-60.3l11.4 46.3h60.3z"/>
			<path id="Fill-50 1 " fill-rule="evenodd" class="s25" d="m772.3 1715.5l0.6-2.1c1-2.6 2.8-4.8 5.3-5.7 1.2-0.4 2.6-0.4 4-0.4 1.2 0.4 2.6 0.8 3.6 1.5 1.7 1.2 2.8 3 3.3 5 0.4 1.7 0.1 2.2-0.1 3.9l-43.2 157.1c-5.5 19.7-21.4 36.4-41.4 42.6-5.9 1.8-12.1 2.7-18.2 2.7h-146.7c-4.4 0-8.7 0.2-13 0h-11.2c-2.9-0.3-5.6-1.7-7.1-4-13.8-6-24.9-17.9-29.2-32.7l-45.4-157.3c-0.3-1.7-0.5-2.1-0.2-3.8 0.5-2.5 2.2-4.8 4.5-5.9 1.5-0.8 2-0.7 3.7-0.9 0 0 330.7 0 330.7 0zm-91.3 188.1l28.2-113.6h-67.8l-28.2 113.6q33.9 0.1 67.8 0zm-80 0l28.2-113.6h-65.1l-28.1 113.6h3.5q30.7 0 61.5 0zm-49.1-113.6h-64.1l-7.3 29.3c-0.4 1.4-0.7 1.8-1.3 2.4q-0.3 0.3-0.6 0.6 8.2 28.4 16.4 56.7c3.7 12.6 15.4 22.5 28.8 24.3 0 0 28.1-113.3 28.1-113.3zm200 0h-30.5l-28 112.9c16.8-2.9 31.7-15.6 36.3-32.5 0 0 22.2-80.4 22.2-80.4zm-276.4 0h-6.2l3.3 11.6zm292.3-57.9h-32l-11.4 46h30.7zm-112 0l-11.4 46h67.8l11.4-46zm-12.2 0h-65l-11.5 46h65.1zm-141.4 0l-11.4 46.1h64.1l11.4-46.1zm-49.5 0q6.7 23.1 13.3 46.1h12.5l11.5-46.1z"/>
			<path id="Fill-51 1 " class="s8" d="m744 1838.2c1.3 0.6 1.8 0.7 2.8 1.9 2.2 2.7 1.6 7.4-1.3 9.4-1.3 0.8-1.7 0.7-3.2 1h-263.8c-3.3-0.6-6.3-3.5-5.8-7.2 0.2-1.8 1.2-3.4 2.6-4.4 1.3-0.8 1.8-0.7 3.3-1h263.7q0.8 0.2 1.7 0.3z"/>
			<g id="Fill-52 1 ">
			</g>
			<g id="&lt;Group&gt;">
				<path id="path-17 1 " class="s26" d="m578.2 1656c0 5.5-2.2 10.9-6.1 14.8-3.9 3.9-9.2 6.1-14.8 6.1h-113.9c-5.5 0-10.8-2.2-14.8-6.1-3.9-4-6.1-9.3-6.1-14.8v-124.5c0-5.5 2.2-10.9 6.1-14.8 4-3.9 9.3-6.2 14.8-6.2h113.9c5.6 0 10.9 2.3 14.8 6.2 3.9 3.9 6.1 9.3 6.1 14.8z"/>
				<path id="Fill-53 1 " class="s8" d="m540.4 1541c0.6 0 0.7 0 1.2 0.2 5.5 1.1 9.3 7.5 7.5 13q-0.6 1.6-1.6 3c-0.4 0.4-0.5 0.5-0.8 0.9l-85.6 85.6c-3.9 3.7-10.5 3.8-14.2 0-3.5-3.4-3.9-9.4-0.8-13.3 0.3-0.4 0.4-0.5 0.8-0.9l85.6-85.6c2.1-2 4.9-3.1 7.9-2.9z"/>
				<path id="Fill-54 1 " class="s8" d="m467.3 1541c7.9 0 14.3 6.4 14.3 14.3 0 7.9-6.4 14.3-14.3 14.3-7.9 0-14.4-6.4-14.4-14.3 0-7.9 6.5-14.3 14.4-14.3z"/>
				<path id="Fill-55 1 " class="s8" d="m538.8 1612.5c7.9 0 14.3 6.4 14.3 14.3 0 7.9-6.4 14.3-14.3 14.3-7.9 0-14.3-6.4-14.3-14.3 0-7.9 6.4-14.3 14.3-14.3z"/>
			</g>
			<g id="Oval-Copy-4 1 ">
			</g>
		</g>
	</g>
</svg>